<svg xmlns="http://www.w3.org/2000/svg" height="512pt" version="1.1" viewBox="0 0 512 512.00088" width="512pt">
<g id="surface1">
<path d="M 294.238281 455.878906 C 273.796875 455.878906 252.492188 448.183594 238.804688 434.496094 L 210.402344 406.09375 C 204.546875 400.238281 204.546875 390.738281 210.402344 384.882812 C 216.261719 379.023438 225.757812 379.023438 231.617188 384.882812 L 260.019531 413.28125 C 271.394531 424.65625 294.4375 429.300781 309.328125 423.21875 L 361.6875 401.832031 C 366.703125 399.785156 369.941406 396.816406 370.574219 393.6875 C 371.203125 390.5625 369.367188 386.570312 365.535156 382.738281 L 337.132812 354.335938 C 331.277344 348.476562 331.277344 338.980469 337.132812 333.121094 C 342.992188 327.265625 352.488281 327.265625 358.347656 333.121094 L 386.746094 361.523438 C 397.808594 372.582031 402.632812 386.46875 399.980469 399.613281 C 397.332031 412.761719 387.507812 423.691406 373.03125 429.605469 L 320.671875 450.992188 C 312.5625 454.304688 303.488281 455.878906 294.238281 455.878906 Z M 294.238281 455.878906 " style=" stroke:none;fill-rule:nonzero;fill:rgb(100%,42.745098%,8.235294%);fill-opacity:1;" />
<path d="M 439.007812 300.179688 L 211.796875 72.960938 C 208.242188 69.410156 203.152344 67.871094 198.226562 68.863281 C 193.300781 69.855469 189.203125 73.246094 187.300781 77.894531 L 69.660156 365.960938 C 67.375 371.554688 68.667969 377.96875 72.941406 382.238281 L 129.742188 439.039062 C 132.609375 441.90625 136.445312 443.433594 140.351562 443.433594 C 142.257812 443.433594 144.183594 443.066406 146.019531 442.320312 L 434.074219 324.671875 C 438.722656 322.773438 442.117188 318.671875 443.109375 313.746094 C 444.097656 308.824219 442.5625 303.730469 439.007812 300.179688 Z M 439.007812 300.179688 " style=" stroke:none;fill-rule:nonzero;fill:rgb(100%,95.686275%,84.705882%);fill-opacity:1;" />
<path d="M 325.40625 186.570312 L 101.339844 410.636719 L 129.742188 439.039062 C 132.609375 441.90625 136.445312 443.433594 140.351562 443.433594 C 142.257812 443.433594 144.183594 443.066406 146.019531 442.320312 L 434.074219 324.671875 C 438.722656 322.773438 442.117188 318.671875 443.109375 313.746094 C 444.097656 308.824219 442.5625 303.730469 439.007812 300.179688 Z M 325.40625 186.570312 " style=" stroke:none;fill-rule:nonzero;fill:rgb(100%,84.705882%,39.215686%);fill-opacity:1;" />
<path d="M 428.40625 98.570312 C 424.566406 98.570312 420.726562 97.105469 417.800781 94.175781 C 411.941406 88.320312 411.941406 78.820312 417.800781 72.960938 L 486.367188 4.394531 C 492.226562 -1.464844 501.722656 -1.464844 507.582031 4.394531 C 513.4375 10.25 513.4375 19.75 507.582031 25.609375 L 439.011719 94.175781 C 436.082031 97.105469 432.246094 98.570312 428.40625 98.570312 Z M 428.40625 98.570312 " style=" stroke:none;fill-rule:nonzero;fill:rgb(69.803922%,86.27451%,100%);fill-opacity:1;" />
<path d="M 360.242188 53.125 C 356.402344 53.125 352.5625 51.660156 349.632812 48.730469 C 343.777344 42.875 343.777344 33.375 349.632812 27.519531 L 372.761719 4.394531 C 378.617188 -1.464844 388.117188 -1.464844 393.972656 4.394531 C 399.832031 10.25 399.832031 19.75 393.972656 25.605469 L 370.847656 48.730469 C 367.917969 51.660156 364.078125 53.125 360.242188 53.125 Z M 360.242188 53.125 " style=" stroke:none;fill-rule:nonzero;fill:rgb(92.156863%,96.470588%,100%);fill-opacity:1;" />
<path d="M 473.847656 166.734375 C 470.011719 166.734375 466.171875 165.273438 463.242188 162.34375 C 457.386719 156.484375 457.382812 146.988281 463.242188 141.128906 L 486.367188 118 C 492.222656 112.144531 501.722656 112.144531 507.582031 118 C 513.4375 123.859375 513.4375 133.355469 507.582031 139.214844 L 484.457031 162.34375 C 481.527344 165.269531 477.6875 166.734375 473.847656 166.734375 Z M 473.847656 166.734375 " style=" stroke:none;fill-rule:nonzero;fill:rgb(69.803922%,86.27451%,100%);fill-opacity:1;" />
<path d="M 150.953125 417.824219 L 94.152344 361.023438 C 83.734375 350.605469 69.878906 344.863281 55.140625 344.863281 C 40.410156 344.863281 26.554688 350.601562 16.132812 361.019531 C -5.375 382.527344 -5.378906 417.527344 16.132812 439.039062 L 72.9375 495.84375 C 83.355469 506.261719 97.210938 512 111.945312 512 L 111.949219 512 C 126.683594 512 140.539062 506.261719 150.953125 495.84375 C 161.375 485.425781 167.113281 471.570312 167.113281 456.835938 C 167.113281 442.097656 161.375 428.246094 150.953125 417.824219 Z M 150.953125 417.824219 " style=" stroke:none;fill-rule:nonzero;fill:rgb(100%,55.686275%,11.372549%);fill-opacity:1;" />
<path d="M 495.816406 243.375 L 268.597656 16.160156 C 258.179688 5.738281 244.328125 0 229.589844 0 C 214.855469 0 201 5.738281 190.582031 16.15625 C 180.164062 26.578125 174.425781 40.429688 174.425781 55.167969 C 174.421875 69.902344 180.164062 83.757812 190.582031 94.171875 L 417.796875 321.394531 C 428.21875 331.8125 442.074219 337.550781 456.808594 337.550781 C 456.8125 337.550781 456.8125 337.550781 456.8125 337.550781 C 471.546875 337.550781 485.398438 331.8125 495.816406 321.394531 C 517.324219 299.882812 517.324219 264.882812 495.816406 243.375 Z M 495.816406 243.375 " style=" stroke:none;fill-rule:nonzero;fill:rgb(100%,55.686275%,11.372549%);fill-opacity:1;" />
<path d="M 72.9375 495.84375 C 83.355469 506.261719 97.210938 512 111.945312 512 L 111.949219 512 C 126.683594 512 140.539062 506.261719 150.953125 495.84375 C 161.375 485.425781 167.113281 471.570312 167.113281 456.835938 C 167.113281 442.097656 161.375 428.246094 150.953125 417.824219 L 122.550781 389.421875 L 44.535156 467.441406 Z M 72.9375 495.84375 " style=" stroke:none;fill-rule:nonzero;fill:rgb(100%,42.745098%,8.235294%);fill-opacity:1;" />
<path d="M 382.207031 129.769531 L 304.191406 207.785156 L 417.796875 321.394531 C 428.21875 331.8125 442.074219 337.550781 456.808594 337.550781 C 456.8125 337.550781 456.8125 337.550781 456.8125 337.550781 C 471.546875 337.550781 485.398438 331.8125 495.816406 321.394531 C 517.324219 299.882812 517.324219 264.882812 495.816406 243.375 Z M 382.207031 129.769531 " style=" stroke:none;fill-rule:nonzero;fill:rgb(100%,42.745098%,8.235294%);fill-opacity:1;" />
</g>
</svg>