<svg xmlns="http://www.w3.org/2000/svg" height="512pt" version="1.1" viewBox="0 0 512 512" width="512pt">
<g id="surface1">
<path d="M 456.832031 0 L 55.164062 0 C 24.746094 0 0 24.746094 0 55.167969 L 0 456.832031 C 0 487.253906 24.746094 512 55.164062 512 L 456.832031 512 C 487.253906 512 512 487.253906 512 456.832031 L 512 55.167969 C 512 24.746094 487.253906 0 456.832031 0 Z M 456.832031 0 " style=" stroke:none;fill-rule:nonzero;fill:rgb(0%,35.294118%,69.411765%);fill-opacity:1;" />
<path d="M 456.832031 0 L 255.996094 0 L 255.996094 512 L 456.832031 512 C 487.253906 512 512 487.253906 512 456.832031 L 512 55.167969 C 512 24.746094 487.253906 0 456.832031 0 Z M 456.832031 0 " style=" stroke:none;fill-rule:nonzero;fill:rgb(0%,20.392157%,36.078431%);fill-opacity:1;" />
<path d="M 400.601562 447.734375 L 111.398438 447.734375 C 103.113281 447.734375 96.398438 441.015625 96.398438 432.734375 C 96.398438 424.449219 103.113281 417.734375 111.398438 417.734375 L 400.601562 417.734375 C 408.882812 417.734375 415.601562 424.449219 415.601562 432.734375 C 415.601562 441.015625 408.882812 447.734375 400.601562 447.734375 Z M 400.601562 447.734375 " style=" stroke:none;fill-rule:nonzero;fill:rgb(92.156863%,96.470588%,100%);fill-opacity:1;" />
<path d="M 336.332031 383.46875 L 175.664062 383.46875 C 167.382812 383.46875 160.664062 376.75 160.664062 368.46875 C 160.664062 360.183594 167.382812 353.46875 175.664062 353.46875 L 336.332031 353.46875 C 344.613281 353.46875 351.332031 360.183594 351.332031 368.46875 C 351.332031 376.75 344.613281 383.46875 336.332031 383.46875 Z M 336.332031 383.46875 " style=" stroke:none;fill-rule:nonzero;fill:rgb(92.156863%,96.470588%,100%);fill-opacity:1;" />
<path d="M 432.730469 64.269531 L 79.269531 64.269531 C 70.984375 64.269531 64.269531 70.984375 64.269531 79.269531 L 64.269531 304.199219 C 64.269531 312.484375 70.984375 319.199219 79.269531 319.199219 L 432.734375 319.199219 C 441.015625 319.199219 447.734375 312.484375 447.734375 304.199219 L 447.734375 79.269531 C 447.730469 70.984375 441.015625 64.269531 432.730469 64.269531 Z M 432.730469 64.269531 " style=" stroke:none;fill-rule:nonzero;fill:rgb(99.215686%,95.294118%,95.686275%);fill-opacity:1;" />
<path d="M 432.730469 64.269531 L 255.996094 64.269531 L 255.996094 319.199219 L 432.730469 319.199219 C 441.015625 319.199219 447.730469 312.484375 447.730469 304.199219 L 447.730469 79.269531 C 447.730469 70.984375 441.015625 64.269531 432.730469 64.269531 Z M 432.730469 64.269531 " style=" stroke:none;fill-rule:nonzero;fill:rgb(85.490196%,92.54902%,94.117647%);fill-opacity:1;" />
<path d="M 442.054688 295.644531 L 332.585938 137.980469 C 329.789062 133.953125 325.207031 131.546875 320.308594 131.535156 C 320.292969 131.535156 320.28125 131.535156 320.265625 131.535156 C 315.382812 131.535156 310.800781 133.914062 307.992188 137.914062 L 251.117188 218.890625 C 247.964844 223.375 247.511719 229.226562 249.9375 234.144531 L 287.746094 310.835938 C 290.273438 315.957031 295.488281 319.199219 301.199219 319.199219 L 429.734375 319.199219 C 435.316406 319.199219 440.4375 316.101562 443.023438 311.152344 C 445.609375 306.207031 445.238281 300.230469 442.054688 295.644531 Z M 442.054688 295.644531 " style=" stroke:none;fill-rule:nonzero;fill:rgb(0%,70.588235%,29.411765%);fill-opacity:1;" />
<path d="M 314.652344 297.566406 L 205.1875 75.632812 C 202.660156 70.511719 197.445312 67.269531 191.734375 67.269531 C 186.023438 67.269531 180.808594 70.511719 178.28125 75.632812 L 68.8125 297.566406 C 66.519531 302.214844 66.789062 307.71875 69.527344 312.121094 C 72.265625 316.523438 77.085938 319.199219 82.265625 319.199219 L 301.199219 319.199219 C 306.382812 319.199219 311.199219 316.523438 313.9375 312.121094 C 316.675781 307.71875 316.945312 302.214844 314.652344 297.566406 Z M 314.652344 297.566406 " style=" stroke:none;fill-rule:nonzero;fill:rgb(50.196078%,82.745098%,59.607843%);fill-opacity:1;" />
<path d="M 400.601562 417.734375 L 255.996094 417.734375 L 255.996094 447.734375 L 400.601562 447.734375 C 408.882812 447.734375 415.601562 441.015625 415.601562 432.734375 C 415.601562 424.449219 408.882812 417.734375 400.601562 417.734375 Z M 400.601562 417.734375 " style=" stroke:none;fill-rule:nonzero;fill:rgb(69.803922%,86.27451%,100%);fill-opacity:1;" />
<path d="M 351.332031 368.46875 C 351.332031 360.183594 344.613281 353.46875 336.332031 353.46875 L 255.996094 353.46875 L 255.996094 383.46875 L 336.332031 383.46875 C 344.613281 383.46875 351.332031 376.75 351.332031 368.46875 Z M 351.332031 368.46875 " style=" stroke:none;fill-rule:nonzero;fill:rgb(69.803922%,86.27451%,100%);fill-opacity:1;" />
</g>
</svg>