<?xml version="1.0"?>
<svg xmlns="http://www.w3.org/2000/svg" height="512px" version="1.1" viewBox="1 0 511.99901 511" width="512px">
<g id="surface1">
<path d="M 215.828125 179.113281 C 219.777344 179.113281 223.648438 177.511719 226.4375 174.722656 C 229.230469 171.933594 230.828125 168.0625 230.828125 164.113281 C 230.828125 160.171875 229.230469 156.300781 226.4375 153.511719 C 223.648438 150.710938 219.777344 149.113281 215.828125 149.113281 C 211.890625 149.113281 208.019531 150.710938 205.230469 153.511719 C 202.429688 156.300781 200.828125 160.171875 200.828125 164.113281 C 200.828125 168.0625 202.429688 171.933594 205.230469 174.722656 C 208.019531 177.511719 211.890625 179.113281 215.828125 179.113281 Z M 215.828125 179.113281 " style=" fill-rule:nonzero;fill-opacity:1;" stroke="#91DC5A" fill="#91DC5A"/>
<path d="M 296.167969 179.113281 C 300.105469 179.113281 303.976562 177.511719 306.769531 174.722656 C 309.566406 171.933594 311.167969 168.0625 311.167969 164.113281 C 311.167969 160.171875 309.566406 156.300781 306.769531 153.511719 C 303.976562 150.710938 300.117188 149.113281 296.167969 149.113281 C 292.21875 149.113281 288.347656 150.710938 285.558594 153.511719 C 282.769531 156.300781 281.167969 160.171875 281.167969 164.113281 C 281.167969 168.0625 282.769531 171.933594 285.558594 174.722656 C 288.347656 177.511719 292.21875 179.113281 296.167969 179.113281 Z M 296.167969 179.113281 " style=" fill-rule:nonzero;fill-opacity:1;" stroke="#91DC5A" fill="#91DC5A"/>
<path d="M 316.25 201.332031 L 195.75 201.332031 C 187.464844 201.332031 180.75 208.046875 180.75 216.332031 C 180.75 257.824219 214.507812 291.582031 256 291.582031 C 297.492188 291.582031 331.25 257.824219 331.25 216.332031 C 331.25 208.046875 324.535156 201.332031 316.25 201.332031 Z M 316.25 201.332031 " style=" fill-rule:nonzero;fill-opacity:1;" stroke="#91DC5A" fill="#91DC5A"/>
<path d="M 456.832031 0.5 L 55.167969 0.5 C 24.75 0.5 0 25.246094 0 55.664062 L 0 376.996094 C 0 407.417969 24.75 432.164062 55.167969 432.164062 L 206.5625 432.164062 L 242.582031 504.203125 C 245.125 509.285156 250.316406 512.496094 256 512.496094 C 261.679688 512.496094 266.875 509.285156 269.414062 504.203125 L 305.4375 432.164062 L 456.832031 432.164062 C 487.25 432.164062 512 407.417969 512 376.996094 L 512 55.664062 C 512 25.246094 487.25 0.5 456.832031 0.5 Z M 256 351.832031 C 181.285156 351.832031 120.5 291.046875 120.5 216.332031 C 120.5 141.617188 181.285156 80.832031 256 80.832031 C 330.714844 80.832031 391.5 141.617188 391.5 216.332031 C 391.5 291.046875 330.714844 351.832031 256 351.832031 Z M 256 351.832031 " style=" fill-rule:nonzero;fill-opacity:1;" stroke="#91DC5A" fill="#91DC5A"/>
</g>
</svg>
