<svg xmlns="http://www.w3.org/2000/svg" height="512pt" version="1.1" viewBox="0 0 512 512" width="512pt">
<g id="surface1">
<path d="M 119.433594 417.734375 L 55.167969 417.734375 C 24.746094 417.734375 0 438.878906 0 464.867188 L 0 497 C 0 505.285156 6.714844 512 15 512 L 159.601562 512 C 167.882812 512 174.601562 505.285156 174.601562 497 L 174.601562 464.867188 C 174.601562 438.878906 149.851562 417.734375 119.433594 417.734375 Z M 119.433594 417.734375 " style=" stroke:none;fill-rule:nonzero;fill:rgb(92.156863%,96.470588%,100%);fill-opacity:1;" />
<path d="M 456.835938 417.734375 L 392.566406 417.734375 C 362.148438 417.734375 337.402344 438.878906 337.402344 464.867188 L 337.402344 497 C 337.402344 505.285156 344.117188 512 352.402344 512 L 497 512 C 505.28125 512 512 505.285156 512 497 L 512 464.867188 C 512 438.878906 487.253906 417.734375 456.835938 417.734375 Z M 456.835938 417.734375 " style=" stroke:none;fill-rule:nonzero;fill:rgb(69.803922%,86.27451%,100%);fill-opacity:1;" />
<path d="M 312.230469 401.667969 L 199.769531 401.667969 C 169.347656 401.667969 144.601562 426.414062 144.601562 456.835938 L 144.601562 497 C 144.601562 505.285156 151.316406 512 159.601562 512 L 352.398438 512 C 360.683594 512 367.398438 505.285156 367.398438 497 L 367.398438 456.835938 C 367.398438 426.414062 342.652344 401.667969 312.230469 401.667969 Z M 312.230469 401.667969 " style=" stroke:none;fill-rule:nonzero;fill:rgb(45.098039%,73.72549%,100%);fill-opacity:1;" />
<path d="M 312.230469 401.667969 L 256 401.667969 L 256 512 L 352.398438 512 C 360.683594 512 367.398438 505.285156 367.398438 497 L 367.398438 456.835938 C 367.398438 426.414062 342.652344 401.667969 312.230469 401.667969 Z M 312.230469 401.667969 " style=" stroke:none;fill-rule:nonzero;fill:rgb(0%,58.431373%,100%);fill-opacity:1;" />
<path d="M 320.269531 273.132812 L 191.734375 273.132812 C 183.449219 273.132812 176.734375 279.851562 176.734375 288.132812 L 176.734375 384.535156 C 176.734375 410.523438 197.878906 431.667969 223.867188 431.667969 C 236.273438 431.667969 247.574219 426.847656 256 418.984375 C 264.425781 426.847656 275.726562 431.667969 288.136719 431.667969 C 314.121094 431.667969 335.269531 410.523438 335.269531 384.535156 L 335.269531 288.132812 C 335.269531 279.851562 328.550781 273.132812 320.269531 273.132812 Z M 320.269531 273.132812 " style=" stroke:none;fill-rule:nonzero;fill:rgb(0%,35.294118%,69.411765%);fill-opacity:1;" />
<path d="M 320.269531 273.132812 L 256 273.132812 L 256 418.988281 L 256 418.984375 C 264.425781 426.847656 275.726562 431.667969 288.136719 431.667969 C 314.121094 431.667969 335.269531 410.523438 335.269531 384.535156 L 335.269531 288.136719 C 335.269531 279.851562 328.550781 273.132812 320.269531 273.132812 Z M 320.269531 273.132812 " style=" stroke:none;fill-rule:nonzero;fill:rgb(0%,35.294118%,69.411765%);fill-opacity:1;" />
<path d="M 433.929688 42.726562 C 425.027344 33.824219 413.191406 28.921875 400.601562 28.921875 C 388.011719 28.921875 376.175781 33.824219 367.273438 42.726562 L 285.585938 124.414062 L 226.414062 124.414062 L 144.730469 42.726562 C 135.828125 33.824219 123.988281 28.921875 111.398438 28.921875 C 98.808594 28.921875 86.972656 33.824219 78.070312 42.726562 C 69.171875 51.628906 64.265625 63.464844 64.265625 76.054688 C 64.265625 88.644531 69.167969 100.480469 78.070312 109.382812 L 176.734375 208.046875 L 176.734375 288.132812 C 176.734375 296.417969 183.449219 303.132812 191.734375 303.132812 L 320.265625 303.132812 C 328.550781 303.132812 335.265625 296.417969 335.265625 288.132812 L 335.265625 208.046875 L 433.925781 109.382812 C 442.828125 100.480469 447.734375 88.644531 447.734375 76.054688 C 447.734375 63.464844 442.828125 51.628906 433.929688 42.726562 Z M 433.929688 42.726562 " style=" stroke:none;fill-rule:nonzero;fill:rgb(50.196078%,82.745098%,59.607843%);fill-opacity:1;" />
<path d="M 433.929688 42.726562 C 425.027344 33.824219 413.191406 28.921875 400.601562 28.921875 C 388.011719 28.921875 376.175781 33.824219 367.273438 42.726562 L 285.585938 124.414062 L 256 124.414062 L 256 303.136719 L 320.269531 303.136719 C 328.550781 303.136719 335.269531 296.417969 335.269531 288.136719 L 335.269531 208.046875 L 433.929688 109.382812 C 442.828125 100.480469 447.734375 88.644531 447.734375 76.054688 C 447.734375 63.464844 442.828125 51.628906 433.929688 42.726562 Z M 433.929688 42.726562 " style=" stroke:none;fill-rule:nonzero;fill:rgb(0%,70.588235%,29.411765%);fill-opacity:1;" />
<path d="M 256 0 C 213.429688 0 178.796875 34.636719 178.796875 77.207031 C 178.796875 119.777344 213.429688 154.414062 256 154.414062 C 298.570312 154.414062 333.203125 119.777344 333.203125 77.207031 C 333.203125 34.636719 298.570312 0 256 0 Z M 256 0 " style=" stroke:none;fill-rule:nonzero;fill:rgb(100%,80.784314%,74.901961%);fill-opacity:1;" />
<path d="M 333.203125 77.207031 C 333.203125 34.636719 298.570312 0 256 0 L 256 154.414062 C 298.570312 154.414062 333.203125 119.777344 333.203125 77.207031 Z M 333.203125 77.207031 " style=" stroke:none;fill-rule:nonzero;fill:rgb(100%,65.490196%,56.078431%);fill-opacity:1;" />
</g>
</svg>